# xmcd
#
# Track frame offsets: 
#        150
#        23251
#        39377
#        59671
#        83510
#        123533
#        140661
#        165143
#        192743
#
# Disc length: 2963 seconds
#
# Revision: 0
# Processed by: cddbd v1.4PL0 Copyright (c) Steve Scherf et al.
# Submitted via: ExactAudioCopy v0.90b4
#
DISCID=6f0b9109
DTITLE=Van Morrison - Let Us Ramble Through The Midnight Fair, Disc 2
DYEAR=1999
DGENRE=Celtic
TTITLE0=Georgia
TTITLE1=Precious Time
TTITLE2=The Healing Game
TTITLE3=Reminds Me Of You
TTITLE4=Help Me
TTITLE5=Jackie Wilson Said ...
TTITLE6=Just Like A Woman
TTITLE7=Philosophers Stone > Oh, Didn't He Ramble
TTITLE8=Gloria > Who Do You Love
EXTD=
EXTT0=
EXTT1=
EXTT2=
EXTT3=
EXTT4=
EXTT5=
EXTT6=
EXTT7=
EXTT8=
PLAYORDER=
